<?xml version="1.0" encoding="utf-8"?>
<!-- Generator: Adobe Illustrator 25.1.0, SVG Export Plug-In . SVG Version: 6.00 Build 0)  -->
<svg version="1.1" id="viz" xmlns="http://www.w3.org/2000/svg" xmlns:xlink="http://www.w3.org/1999/xlink" x="0px" y="0px"
	 viewBox="0 0 952 952" style="enable-background:new 0 0 952 952;" xml:space="preserve">
<style type="text/css">
	.st0{fill:#FFFFFF;stroke:#E3E3E3;}
	.st1{fill:#FF5555;}
	.st2{fill:#BD93F9;}
	.st3{fill:#6272A4;}
	.st4{fill:#E3E3E3;fill-opacity:0.1;}
	.st5{fill:#FF79C6;}
	.st6{fill:#50FA7B;}
	.st7{fill:#FFB86C;}
</style>
<g>
	<circle class="st0" cx="476" cy="476" r="333.2"/>
	<rect x="476.5" y="475.6" class="st1" width="0" height="0"/>
	<circle class="st2" cx="480.9" cy="136.9" r="9.8"/>
	<rect x="474.2" y="465.4" class="st3" width="0" height="0"/>
	<rect x="484.4" y="484.3" class="st2" width="0" height="0"/>
	<rect x="467.5" y="470.8" class="st3" width="0" height="0"/>
	<circle class="st4" cx="485.4" cy="473.7" r="1"/>
	<rect x="474.8" y="484.8" class="st5" width="0" height="0"/>
	<rect x="463" y="461.2" class="st6" width="0" height="0"/>
	<rect x="495.2" y="476.8" class="st1" width="0" height="0"/>
	<rect x="463.4" y="479.4" class="st7" width="0" height="0"/>
	<circle class="st2" cx="538.3" cy="186.9" r="9.9"/>
	<rect x="482.8" y="494.1" class="st1" width="0" height="0"/>
	<rect x="457.4" y="471.6" class="st5" width="0" height="0"/>
	<circle class="st1" cx="642.5" cy="187.5" r="9"/>
	<rect x="466.8" y="488.5" class="st1" width="0" height="0"/>
	<rect x="471" y="455.3" class="st5" width="0" height="0"/>
	<rect x="494.2" y="486.5" class="st2" width="0" height="0"/>
	<circle class="st2" cx="484.5" cy="162.8" r="9.2"/>
	<rect x="490.4" y="466" class="st5" width="0" height="0"/>
	<rect x="473" y="496.1" class="st3" width="0" height="0"/>
	<rect x="460.7" y="451.5" class="st5" width="0" height="0"/>
	<rect x="503.6" y="483" class="st1" width="0" height="0"/>
	<rect x="458.8" y="492.2" class="st6" width="0" height="0"/>
	<rect x="481.2" y="460.4" class="st2" width="0" height="0"/>
	<rect x="492.6" y="495.6" class="st3" width="0" height="0"/>
	<rect x="448.6" y="474.9" class="st6" width="0" height="0"/>
	<rect x="499.7" y="468" class="st1" width="0" height="0"/>
	<circle class="st2" cx="459.3" cy="143.3" r="6.7"/>
	<rect x="467" y="442.6" class="st3" width="0" height="0"/>
	<rect x="502.3" y="494.8" class="st3" width="0" height="0"/>
	<rect x="454.1" y="484.1" class="st1" width="0" height="0"/>
	<rect x="489.5" y="456" class="st3" width="0" height="0"/>
	<circle class="st5" cx="508.4" cy="136.5" r="9.5"/>
	<rect x="453.8" y="462.8" class="st3" width="0" height="0"/>
	<rect x="507.5" y="473.5" class="st5" width="0" height="0"/>
	<rect x="462.7" y="500.5" class="st3" width="0" height="0"/>
	<rect x="475.3" y="447.1" class="st3" width="0" height="0"/>
	<circle class="st6" cx="472.5" cy="178.1" r="9.7"/>
	<rect x="442.5" y="482.2" class="st1" width="0" height="0"/>
	<rect x="499.1" y="458.6" class="st6" width="0" height="0"/>
	<rect x="470.7" y="506" class="st3" width="0" height="0"/>
	<rect x="451" y="452.1" class="st3" width="0" height="0"/>
	<circle class="st5" cx="496.9" cy="107.7" r="9.3"/>
	<rect x="446.1" y="491.2" class="st3" width="0" height="0"/>
	<circle class="st2" cx="512.4" cy="162.7" r="9.6"/>
	<rect x="490.8" y="504.9" class="st5" width="0" height="0"/>
	<circle class="st2" cx="478.6" cy="107.7" r="11.4"/>
	<circle class="st2" cx="547.6" cy="117.8" r="17.2"/>
	<rect x="461.4" y="511.4" class="st3" width="0" height="0"/>
	<circle class="st2" cx="559.6" cy="139.6" r="9.9"/>
	<rect x="509.6" y="504.2" class="st3" width="0" height="0"/>
	<rect x="435.2" y="488.2" class="st5" width="0" height="0"/>
	<rect x="496.7" y="448.1" class="st5" width="0" height="0"/>
	<rect x="481.1" y="504.5" class="st6" width="0" height="0"/>
	<rect x="445.1" y="459.5" class="st3" width="0" height="0"/>
	<rect x="513.4" y="483.3" class="st5" width="0" height="0"/>
	<rect x="451.1" y="499.2" class="st3" width="0" height="0"/>
	<rect x="483.6" y="448.8" class="st3" width="0" height="0"/>
	<rect x="500.7" y="505.5" class="st2" width="0" height="0"/>
	<rect x="435.3" y="476" class="st3" width="0" height="0"/>
	<rect x="509.6" y="463.1" class="st3" width="0" height="0"/>
	<circle class="st4" cx="469.1" cy="516.4" r="1"/>
	<circle class="st4" cx="457" cy="441.3" r="1"/>
	<rect x="510.7" y="493" class="st7" width="0" height="0"/>
	<rect x="438.9" y="499" class="st2" width="0" height="0"/>
	<circle class="st2" cx="450.7" cy="159.1" r="10.6"/>
	<rect x="488.5" y="514.1" class="st3" width="0" height="0"/>
	<rect x="442.1" y="468.4" class="st3" width="0" height="0"/>
	<rect x="517" y="474.2" class="st1" width="0" height="0"/>
	<circle class="st2" cx="552.4" cy="144" r="9.6"/>
	<rect x="475.8" y="437.3" class="st3" width="0" height="0"/>
	<circle class="st2" cx="759.2" cy="300.4" r="2.5"/>
	<circle class="st2" cx="485.6" cy="180" r="6.4"/>
	<circle class="st4" cx="505.7" cy="451.9" r="1"/>
	<rect x="478.3" y="514.5" class="st5" width="0" height="0"/>
	<rect x="445.4" y="445.5" class="st5" width="0" height="0"/>
	<circle class="st4" cx="520.5" cy="491.1" r="1"/>
	<rect x="442.2" y="507.3" class="st3" width="0" height="0"/>
	<rect x="490.6" y="441.2" class="st3" width="0" height="0"/>
	<rect x="498.9" y="515.4" class="st6" width="0" height="0"/>
	<rect x="430.2" y="465.9" class="st5" width="0" height="0"/>
	<rect x="516.3" y="456.3" class="st5" width="0" height="0"/>
	<circle class="st4" cx="455.6" cy="519.6" r="1"/>
	<rect x="467.5" y="431.8" class="st2" width="0" height="0"/>
	<circle class="st2" cx="540.7" cy="138.5" r="5.6"/>
	<rect x="428.6" y="493.8" class="st1" width="0" height="0"/>
	<rect x="508.1" y="441.5" class="st1" width="0" height="0"/>
	<rect x="481.6" y="523.8" class="st1" width="0" height="0"/>
	<rect x="437.5" y="450.1" class="st1" width="0" height="0"/>
	<rect x="523.7" y="481.2" class="st2" width="0" height="0"/>
	<circle class="st4" cx="453.5" cy="507.7" r="1"/>
	<circle class="st1" cx="809.3" cy="478" r="17.9"/>
	
		<ellipse transform="matrix(0.1602 -0.9871 0.9871 0.1602 337.7542 600.4102)" class="st2" cx="521.7" cy="101.7" rx="10.7" ry="10.7"/>
	<rect x="426.3" y="483.2" class="st5" width="0" height="0"/>
	<rect x="515" y="447" class="st1" width="0" height="0"/>
	<circle class="st4" cx="463.9" cy="525" r="1"/>
	<rect x="447.7" y="437" class="st1" width="0" height="0"/>
	<rect x="518.1" y="501.1" class="st1" width="0" height="0"/>
	<rect x="430.7" y="504.4" class="st3" width="0" height="0"/>
	<rect x="501.1" y="437.2" class="st2" width="0" height="0"/>
	<rect x="491.1" y="523.7" class="st1" width="0" height="0"/>
	<rect x="434.8" y="458.4" class="st1" width="0" height="0"/>
	<rect x="520.2" y="466" class="st1" width="0" height="0"/>
	<circle class="st2" cx="495.1" cy="163.9" r="13.4"/>
	<rect x="468" y="421.8" class="st1" width="0" height="0"/>
	<rect x="518.1" y="511.8" class="st3" width="0" height="0"/>
	<rect x="418.3" y="489.4" class="st3" width="0" height="0"/>
	<rect x="517.3" y="437" class="st3" width="0" height="0"/>
	<rect x="473.4" y="526.6" class="st2" width="0" height="0"/>
	<circle class="st2" cx="509" cy="118.6" r="13.7"/>
	<circle class="st2" cx="488.8" cy="141.9" r="9.6"/>
	<circle class="st4" cx="433.2" cy="513.6" r="1"/>
	<rect x="484.2" y="435.3" class="st3" width="0" height="0"/>
	<rect x="508.7" y="515.2" class="st3" width="0" height="0"/>
	<rect x="425.6" y="473.8" class="st1" width="0" height="0"/>
	<rect x="526.2" y="455.3" class="st1" width="0" height="0"/>
	<rect x="455.5" y="531.2" class="st3" width="0" height="0"/>
	<rect x="458.2" y="431.2" class="st2" width="0" height="0"/>
	<rect x="527" y="503.5" class="st7" width="0" height="0"/>
	<rect x="421.1" y="500" class="st3" width="0" height="0"/>
	<rect x="507.8" y="429.5" class="st3" width="0" height="0"/>
	<circle class="st5" cx="499.7" cy="145.9" r="7.8"/>
	<circle class="st4" cx="425" cy="451.4" r="1"/>
	<rect x="531.1" y="474.1" class="st2" width="0" height="0"/>
	<rect x="446.9" y="515.1" class="st2" width="0" height="0"/>
	<rect x="476.6" y="425.9" class="st1" width="0" height="0"/>
	<rect x="518.3" y="521.7" class="st2" width="0" height="0"/>
	<circle class="st4" cx="416.3" cy="479.3" r="1"/>
	<rect x="524.8" y="445.5" class="st3" width="0" height="0"/>
	<rect x="465.6" y="534.9" class="st3" width="0" height="0"/>
	<rect x="437.8" y="436.8" class="st1" width="0" height="0"/>
	<rect x="529.8" y="493.9" class="st3" width="0" height="0"/>
	<rect x="422" y="510.7" class="st1" width="0" height="0"/>
	<rect x="494.6" y="430.7" class="st2" width="0" height="0"/>
	<rect x="500.9" y="525.4" class="st7" width="0" height="0"/>
	<rect x="421.6" y="459.9" class="st5" width="0" height="0"/>
	<rect x="529.6" y="465.1" class="st3" width="0" height="0"/>
	<rect x="447.1" y="526.1" class="st3" width="0" height="0"/>
	<rect x="457.3" y="421.1" class="st2" width="0" height="0"/>
	<rect x="528.1" y="513.5" class="st1" width="0" height="0"/>
	<circle class="st2" cx="495.5" cy="123.9" r="7.5"/>
	<circle class="st1" cx="530.5" cy="124.6" r="5.4"/>
	<rect x="485.1" y="533.8" class="st1" width="0" height="0"/>
	<rect x="430.4" y="443.3" class="st1" width="0" height="0"/>
	<rect x="533" y="484.5" class="st5" width="0" height="0"/>
	<rect x="438.7" y="520.9" class="st7" width="0" height="0"/>
	<rect x="485.8" y="425.3" class="st6" width="0" height="0"/>
	<rect x="509.6" y="525.8" class="st6" width="0" height="0"/>
	<rect x="417.2" y="468.8" class="st1" width="0" height="0"/>
	<circle class="st2" cx="524.6" cy="130.2" r="9.8"/>
	<circle class="st2" cx="510.5" cy="186.7" r="17.2"/>
	<rect x="448.4" y="428" class="st1" width="0" height="0"/>
	<circle class="st2" cx="471.9" cy="165.8" r="9.2"/>
	<circle class="st2" cx="482" cy="123.6" r="8.8"/>
	<rect x="506.2" y="420.2" class="st3" width="0" height="0"/>
	<circle class="st4" cx="495.1" cy="533.1" r="1"/>
	<rect x="418.4" y="443.3" class="st5" width="0" height="0"/>
	<rect x="541.1" y="472.4" class="st5" width="0" height="0"/>
	<rect x="435.3" y="531.1" class="st5" width="0" height="0"/>
	<rect x="474" y="414" class="st7" width="0" height="0"/>
	<rect x="527.5" y="522.4" class="st2" width="0" height="0"/>
	<rect x="408.5" y="485.5" class="st3" width="0" height="0"/>
	<rect x="517.3" y="427.4" class="st1" width="0" height="0"/>
	<rect x="475.9" y="536.6" class="st3" width="0" height="0"/>
	<circle class="st2" cx="474.2" cy="148.1" r="11"/>
	<circle class="st3" cx="584.4" cy="175" r="11.1"/>
	<rect x="422.1" y="519.1" class="st3" width="0" height="0"/>
	<circle class="st1" cx="501" cy="133.5" r="3.7"/>
	<circle class="st2" cx="538.5" cy="167.9" r="13.8"/>
	<circle class="st2" cx="560.6" cy="171.8" r="15.9"/>
	<rect x="536.3" y="455.5" class="st7" width="0" height="0"/>
	<rect x="450.8" y="540.4" class="st3" width="0" height="0"/>
	<rect x="447.8" y="418.5" class="st3" width="0" height="0"/>
	<rect x="536" y="508.7" class="st1" width="0" height="0"/>
	<rect x="411.2" y="495.8" class="st3" width="0" height="0"/>
	
		<ellipse transform="matrix(0.1602 -0.9871 0.9871 0.1602 288.2369 639.1492)" class="st2" cx="519.7" cy="150.2" rx="14.9" ry="14.9"/>
	<rect x="489.9" y="543.1" class="st1" width="0" height="0"/>
	<rect x="424.7" y="435.6" class="st3" width="0" height="0"/>
	<rect x="542.5" y="481.3" class="st6" width="0" height="0"/>
	<circle class="st2" cx="457.5" cy="128.3" r="13.5"/>
	<rect x="482.9" y="415" class="st2" width="0" height="0"/>
	<rect x="517.6" y="531.8" class="st1" width="0" height="0"/>
	<rect x="408.3" y="473.5" class="st1" width="0" height="0"/>
	<rect x="526.7" y="436" class="st1" width="0" height="0"/>
	<rect x="469.5" y="545" class="st3" width="0" height="0"/>
	<rect x="439.6" y="424.6" class="st1" width="0" height="0"/>
	<rect x="538.1" y="499.7" class="st1" width="0" height="0"/>
	<rect x="413.3" y="506.2" class="st3" width="0" height="0"/>
	<rect x="497.8" y="422.3" class="st5" width="0" height="0"/>
	<rect x="499.8" y="540.9" class="st3" width="0" height="0"/>
	<rect x="413.9" y="452.9" class="st1" width="0" height="0"/>
	<rect x="540.1" y="463.5" class="st5" width="0" height="0"/>
	<rect x="443" y="535.7" class="st3" width="0" height="0"/>
	<rect x="462.2" y="413.6" class="st2" width="0" height="0"/>
	<circle class="st1" cx="661.4" cy="199.3" r="11.3"/>
	<circle class="st2" cx="611" cy="169.1" r="16.3"/>
	<circle class="st5" cx="581.7" cy="146.1" r="15.7"/>
	<rect x="480.3" y="545.1" class="st6" width="0" height="0"/>
	<rect x="431.8" y="429.1" class="st1" width="0" height="0"/>
	<rect x="541.2" y="491.1" class="st7" width="0" height="0"/>
	<rect x="429.1" y="524.9" class="st2" width="0" height="0"/>
	<rect x="491.8" y="416.3" class="st6" width="0" height="0"/>
	<rect x="507.9" y="535.9" class="st1" width="0" height="0"/>
	<rect x="410.1" y="462.5" class="st1" width="0" height="0"/>
	<rect x="533.8" y="446.5" class="st3" width="0" height="0"/>
	<rect x="459.7" y="542.6" class="st3" width="0" height="0"/>
</g>
</svg>
