<?xml version="1.0" encoding="utf-8"?>
<!-- Generator: Adobe Illustrator 25.1.0, SVG Export Plug-In . SVG Version: 6.00 Build 0)  -->
<svg version="1.1" id="viz" xmlns="http://www.w3.org/2000/svg" xmlns:xlink="http://www.w3.org/1999/xlink" x="0px" y="0px"
	 viewBox="0 0 952 952" style="enable-background:new 0 0 952 952;" xml:space="preserve">
<style type="text/css">
	.st0{fill:#FFFFFF;stroke:#E3E3E3;}
	.st1{fill:#FF5555;}
	.st2{fill:#BD93F9;}
	.st3{fill:#6272A4;}
	.st4{fill:#FF79C6;}
	.st5{fill:#50FA7B;}
	.st6{fill:#FFB86C;}
	.st7{fill:#E3E3E3;fill-opacity:0.1;}
</style>
<g>
	<circle class="st0" cx="476" cy="476" r="333.2"/>
	<circle class="st1" cx="492.5" cy="122.3" r="2.8"/>
	<circle class="st2" cx="449" cy="159" r="9.9"/>
	<rect x="471" y="483.6" class="st3" width="0" height="0"/>
	<circle class="st2" cx="671.2" cy="253.7" r="12.6"/>
	<circle class="st3" cx="458.3" cy="165.5" r="3.1"/>
	<circle class="st4" cx="755" cy="658.9" r="2.5"/>
	<circle class="st4" cx="805.6" cy="481.3" r="9"/>
	<circle class="st5" cx="584.7" cy="189.5" r="8.6"/>
	<rect x="485.6" y="481.9" class="st1" width="0" height="0"/>
	<circle class="st6" cx="480.5" cy="131.5" r="2.8"/>
	<circle class="st2" cx="703.8" cy="201.2" r="11.1"/>
	<circle class="st1" cx="577" cy="146.4" r="6.1"/>
	<rect x="457.4" y="482.6" class="st4" width="0" height="0"/>
	<circle class="st1" cx="803.6" cy="406" r="12.1"/>
	<circle class="st1" cx="545.7" cy="159.7" r="3.8"/>
	<circle class="st4" cx="770.5" cy="369.9" r="6.7"/>
	<circle class="st2" cx="500.5" cy="151.4" r="7.6"/>
	<circle class="st2" cx="646.6" cy="182.1" r="10.5"/>
	<circle class="st4" cx="545.1" cy="150.3" r="4.6"/>
	<rect x="471.7" y="492.9" class="st3" width="0" height="0"/>
	<circle class="st4" cx="780.7" cy="601.9" r="2.5"/>
	<rect x="496.2" y="485.8" class="st1" width="0" height="0"/>
	<circle class="st5" cx="513.7" cy="187.3" r="6.5"/>
	<rect x="472" y="464.9" class="st2" width="0" height="0"/>
	<rect x="482.2" y="500" class="st3" width="0" height="0"/>
	<circle class="st5" cx="594.8" cy="144.9" r="11.4"/>
	<rect x="476.7" y="476.9" class="st1" width="0" height="0"/>
	<circle class="st2" cx="581.5" cy="166.6" r="12.6"/>
	<rect x="465.8" y="474.6" class="st3" width="0" height="0"/>
	<rect x="492.1" y="504.2" class="st3" width="0" height="0"/>
	<circle class="st1" cx="531.6" cy="142" r="3.3"/>
	<rect x="491.8" y="475.2" class="st3" width="0" height="0"/>
	<circle class="st4" cx="609.7" cy="187.4" r="7.1"/>
	<rect x="459.8" y="469.5" class="st3" width="0" height="0"/>
	<circle class="st4" cx="747.9" cy="655.3" r="2.5"/>
	<rect x="481.4" y="490.6" class="st3" width="0" height="0"/>
	<rect x="472.2" y="454.9" class="st3" width="0" height="0"/>
	<circle class="st5" cx="802.1" cy="524.5" r="10.7"/>
	<rect x="462" y="488.9" class="st1" width="0" height="0"/>
	<circle class="st5" cx="526.9" cy="181.1" r="6.9"/>
	<rect x="474.1" y="504" class="st3" width="0" height="0"/>
	<rect x="463.4" y="460.2" class="st3" width="0" height="0"/>
	<circle class="st4" cx="562.7" cy="162.3" r="6.6"/>
	<circle class="st3" cx="458.2" cy="148.1" r="4.4"/>
	<circle class="st2" cx="597.1" cy="178.6" r="8.8"/>
	<rect x="473.3" y="513.9" class="st4" width="0" height="0"/>
	<circle class="st2" cx="690.3" cy="183.1" r="12.9"/>
	<circle class="st2" cx="611.2" cy="214.7" r="18.5"/>
	<rect x="464.2" y="507" class="st3" width="0" height="0"/>
	<circle class="st2" cx="689.4" cy="249.8" r="8.5"/>
	<rect x="483.4" y="510.3" class="st3" width="0" height="0"/>
	<circle class="st4" cx="801.8" cy="366" r="4.9"/>
	<circle class="st4" cx="600" cy="193.9" r="5.5"/>
	<circle class="st5" cx="483.6" cy="155.2" r="6.5"/>
	<rect x="455.5" y="455.1" class="st3" width="0" height="0"/>
	<circle class="st4" cx="470.8" cy="145.8" r="4.8"/>
	<rect x="464.3" y="498.1" class="st3" width="0" height="0"/>
	<rect x="485.7" y="450.1" class="st3" width="0" height="0"/>
	<circle class="st2" cx="714.3" cy="231.1" r="18.8"/>
	<rect x="450" y="492.2" class="st3" width="0" height="0"/>
	<rect x="489.7" y="466.6" class="st3" width="0" height="0"/>
	<circle class="st2" cx="700.2" cy="248.3" r="2.5"/>
	<circle class="st5" cx="475.2" cy="805.8" r="2.5"/>
	<rect x="500.8" y="496.4" class="st6" width="0" height="0"/>
	<circle class="st2" cx="704.9" cy="258.4" r="8.1"/>
	<circle class="st2" cx="630.2" cy="147.4" r="11.9"/>
	<rect x="494.4" y="523.5" class="st3" width="0" height="0"/>
	<rect x="451.7" y="465.6" class="st3" width="0" height="0"/>
	<rect x="491.2" y="493.8" class="st1" width="0" height="0"/>
	<circle class="st2" cx="676" cy="200.9" r="8"/>
	<circle class="st3" cx="507" cy="118.6" r="3.8"/>
	<circle class="st2" cx="244.4" cy="241.3" r="2.5"/>
	<circle class="st2" cx="678.2" cy="162.1" r="9.9"/>
	<circle class="st7" cx="481.4" cy="458.6" r="1"/>
	<circle class="st4" cx="631.5" cy="208.4" r="3.9"/>
	<circle class="st4" cx="480.9" cy="177.5" r="5.4"/>
	<circle class="st2" cx="763.6" cy="637.2" r="2.5"/>
	<rect x="454.8" y="499.8" class="st3" width="0" height="0"/>
	<rect x="463.8" y="448.9" class="st3" width="0" height="0"/>
	<circle class="st5" cx="483.5" cy="137.9" r="6.6"/>
	<rect x="427.3" y="471.2" class="st4" width="0" height="0"/>
	<circle class="st4" cx="466.7" cy="164.1" r="6.6"/>
	<circle class="st1" cx="540.9" cy="168.2" r="2.5"/>
	<circle class="st2" cx="739.3" cy="277.5" r="16.8"/>
	<circle class="st2" cx="694.8" cy="227.2" r="3.9"/>
	
		<ellipse transform="matrix(0.3827 -0.9239 0.9239 0.3827 170.2209 569.0042)" class="st1" cx="510.9" cy="157.1" rx="4.6" ry="4.6"/>
	<circle class="st1" cx="521.5" cy="173.3" r="4.7"/>
	<circle class="st1" cx="492.4" cy="166.7" r="7.4"/>
	<rect x="510.6" y="461.8" class="st1" width="0" height="0"/>
	<circle class="st2" cx="697.3" cy="216.2" r="7.6"/>
	<circle class="st2" cx="804.6" cy="502.9" r="2.5"/>
	<circle class="st1" cx="299.3" cy="754.5" r="10.6"/>
	<circle class="st2" cx="663.6" cy="176.4" r="12.1"/>
	<circle class="st4" cx="494.5" cy="185.1" r="9.8"/>
	<circle class="st1" cx="501.4" cy="160.8" r="4"/>
	<circle class="st2" cx="666.2" cy="745.4" r="2.5"/>
	<circle class="st1" cx="526.1" cy="124.1" r="15.9"/>
	<circle class="st1" cx="478.1" cy="188.7" r="6"/>
	<circle class="st3" cx="489.4" cy="149.5" r="4.3"/>
	<rect x="495.3" y="446.3" class="st2" width="0" height="0"/>
	<circle class="st1" cx="636.4" cy="170.8" r="11.2"/>
	<rect x="444.6" y="470.4" class="st1" width="0" height="0"/>
	<rect x="500.6" y="478.1" class="st1" width="0" height="0"/>
	<circle class="st2" cx="566" cy="186" r="10.6"/>
	<circle class="st1" cx="529.4" cy="158" r="13.2"/>
	<rect x="485.1" y="519.1" class="st3" width="0" height="0"/>
	<rect x="451.2" y="478.3" class="st3" width="0" height="0"/>
	<rect x="493" y="456.5" class="st3" width="0" height="0"/>
	<rect x="468.1" y="528.9" class="st2" width="0" height="0"/>
	<circle class="st2" cx="670.6" cy="233.3" r="9"/>
	<circle class="st2" cx="639.2" cy="194.7" r="10.9"/>
	<circle class="st1" cx="595.5" cy="160" r="2.5"/>
	<rect x="483.9" y="440.7" class="st3" width="0" height="0"/>
	<rect x="483.3" y="528.2" class="st3" width="0" height="0"/>
	<circle class="st1" cx="486.2" cy="126" r="5.8"/>
	<rect x="480.7" y="469.3" class="st1" width="0" height="0"/>
	<rect x="475" y="523.5" class="st3" width="0" height="0"/>
	<circle class="st2" cx="789.3" cy="383.6" r="15.7"/>
	<rect x="502.3" y="507.3" class="st6" width="0" height="0"/>
	<rect x="436.7" y="494.1" class="st3" width="0" height="0"/>
	<circle class="st3" cx="474.3" cy="155.4" r="4.2"/>
	<circle class="st4" cx="549.5" cy="140.1" r="5.7"/>
	<rect x="445.1" y="459.4" class="st6" width="0" height="0"/>
	<circle class="st2" cx="459.9" cy="180.5" r="11.8"/>
	<circle class="st2" cx="808.9" cy="428.7" r="11.7"/>
	<rect x="457.1" y="441.8" class="st1" width="0" height="0"/>
	<circle class="st2" cx="461.5" cy="125.3" r="17.5"/>
	<circle class="st4" cx="773.9" cy="338.9" r="2.5"/>
	<circle class="st3" cx="718.5" cy="254" r="4.1"/>
	<circle class="st3" cx="478.8" cy="109" r="3.9"/>
	<circle class="st1" cx="492.9" cy="156.4" r="2.8"/>
	<rect x="510.1" y="499.4" class="st3" width="0" height="0"/>
	<rect x="442.1" y="501.5" class="st1" width="0" height="0"/>
	<circle class="st2" cx="630.2" cy="237.8" r="11.6"/>
	
		<ellipse transform="matrix(0.3827 -0.9239 0.9239 0.3827 190.8414 557.0002)" class="st6" cx="512.2" cy="135.7" rx="2.9" ry="2.9"/>
	<rect x="425.9" y="480.7" class="st4" width="0" height="0"/>
	<rect x="518.1" y="483.7" class="st3" width="0" height="0"/>
	<rect x="458.7" y="525.3" class="st3" width="0" height="0"/>
	<rect x="434" y="465.4" class="st2" width="0" height="0"/>
	<rect x="504.9" y="516.9" class="st1" width="0" height="0"/>
	<circle class="st2" cx="670.9" cy="213.6" r="8.5"/>
	
		<ellipse transform="matrix(0.1602 -0.9871 0.9871 0.1602 285.0145 627.5678)" class="st1" cx="511.3" cy="146.3" rx="7.1" ry="7.1"/>
	<circle class="st1" cx="494.2" cy="145" r="4.1"/>
	<rect x="475.6" y="446" class="st1" width="0" height="0"/>
	<rect x="507.4" y="488.2" class="st4" width="0" height="0"/>
	<rect x="448.9" y="507.5" class="st6" width="0" height="0"/>
	<circle class="st5" cx="500.3" cy="131.6" r="10.1"/>
	<circle class="st5" cx="509.5" cy="171.8" r="9.2"/>
	<circle class="st1" cx="478.7" cy="164.5" r="5.6"/>
	<circle class="st2" cx="652.9" cy="157.4" r="13"/>
	<circle class="st2" cx="675.1" cy="192.3" r="6.3"/>
	<circle class="st1" cx="563.2" cy="144.1" r="8.9"/>
	<circle class="st2" cx="622.3" cy="188.9" r="10.2"/>
	<circle class="st2" cx="554.4" cy="173.4" r="6.5"/>
	<circle class="st3" cx="544.3" cy="131.1" r="3.8"/>
	<circle class="st3" cx="433" cy="803" r="2.5"/>
	<rect x="438.6" y="475.9" class="st4" width="0" height="0"/>
	<circle class="st4" cx="686.2" cy="235.8" r="8.4"/>
	<rect x="450.3" y="521.8" class="st4" width="0" height="0"/>
	<rect x="468.6" y="439.8" class="st6" width="0" height="0"/>
	<circle class="st2" cx="759.7" cy="308.1" r="17.6"/>
	<rect x="443.3" y="486.3" class="st3" width="0" height="0"/>
	<rect x="503.7" y="453.7" class="st1" width="0" height="0"/>
	<circle class="st3" cx="478.7" cy="147.8" r="4"/>
	<circle class="st2" cx="785.9" cy="352.4" r="15.3"/>
	<circle class="st3" cx="222.1" cy="686.6" r="13.6"/>
	<rect x="436.4" y="510.9" class="st3" width="0" height="0"/>
	<circle class="st1" cx="677.9" cy="208.3" r="3.2"/>
	<circle class="st2" cx="655.8" cy="238.7" r="12.1"/>
	<circle class="st2" cx="659.4" cy="194.9" r="11.7"/>
	<rect x="505.3" y="469.6" class="st6" width="0" height="0"/>
	<rect x="456" y="512.9" class="st3" width="0" height="0"/>
	<circle class="st3" cx="445.1" cy="143.4" r="4.7"/>
	<circle class="st1" cx="521.6" cy="141.1" r="4"/>
	<rect x="427.1" y="492" class="st3" width="0" height="0"/>
	<circle class="st2" cx="686.4" cy="201.1" r="7.6"/>
	<circle class="st1" cx="571.6" cy="155.6" r="4.4"/>
	<rect x="434.2" y="457" class="st3" width="0" height="0"/>
	<rect x="510.3" y="478.8" class="st5" width="0" height="0"/>
	<circle class="st2" cx="640.3" cy="216" r="12.4"/>
	<circle class="st2" cx="660.8" cy="219.5" r="8.5"/>
	<rect x="494.7" y="514" class="st1" width="0" height="0"/>
	<rect x="434.3" y="483.4" class="st1" width="0" height="0"/>
	<rect x="499.1" y="463.3" class="st1" width="0" height="0"/>
	<rect x="464.3" y="517.6" class="st3" width="0" height="0"/>
	<circle class="st1" cx="475.7" cy="139.8" r="3"/>
	<rect x="512.7" y="507.8" class="st1" width="0" height="0"/>
	<rect x="430.4" y="502.5" class="st3" width="0" height="0"/>
	<circle class="st4" cx="481.1" cy="115.5" r="3.7"/>
	<circle class="st3" cx="464.3" cy="151.7" r="6"/>
	<circle class="st1" cx="683.7" cy="219.4" r="9"/>
	<circle class="st4" cx="788.5" cy="581.3" r="2.5"/>
	<circle class="st3" cx="485.6" cy="174.8" r="2.8"/>
	<circle class="st2" cx="494.8" cy="110.8" r="9.6"/>
	<circle class="st1" cx="727.1" cy="689.7" r="9.9"/>
	<circle class="st2" cx="712.1" cy="706.2" r="7.1"/>
	<circle class="st4" cx="788.8" cy="422.2" r="9"/>
	<circle class="st5" cx="613.7" cy="167.6" r="11.7"/>
	<rect x="450" y="447.4" class="st1" width="0" height="0"/>
	<rect x="516.6" y="493.5" class="st6" width="0" height="0"/>
	<rect x="444.1" y="516" class="st2" width="0" height="0"/>
	<circle class="st5" cx="474.5" cy="175.2" r="4.7"/>
	<circle class="st1" cx="481.9" cy="121.5" r="2.6"/>
	<rect x="441.4" y="450.1" class="st1" width="0" height="0"/>
	<rect x="516.3" y="471.5" class="st3" width="0" height="0"/>
	<circle class="st3" cx="452.8" cy="146.2" r="3.2"/>
</g>
</svg>
