<?xml version="1.0" encoding="utf-8"?>
<!-- Generator: Adobe Illustrator 25.1.0, SVG Export Plug-In . SVG Version: 6.00 Build 0)  -->
<svg version="1.1" id="viz" xmlns="http://www.w3.org/2000/svg" xmlns:xlink="http://www.w3.org/1999/xlink" x="0px" y="0px"
	 viewBox="0 0 952 952" style="enable-background:new 0 0 952 952;" xml:space="preserve">
<style type="text/css">
	.st0{fill:#FF5555;}
	.st1{fill:#BD93F9;}
	.st2{fill:#6272A4;}
	.st3{fill:#FF79C6;}
	.st4{fill:#50FA7B;}
	.st5{fill:#FFB86C;}
	.st6{fill:#E3E3E3;fill-opacity:0.1;}
	.st7{opacity:0.6;fill:#5F0200;stroke:#E3E3E3;}
</style>
<rect x="472.2" y="115.3" class="st0" width="0" height="0"/>
<rect x="480.5" y="154.2" class="st1" width="0" height="0"/>
<rect x="680.2" y="205.8" class="st1" width="0" height="0"/>
<rect x="462" y="121.7" class="st2" width="0" height="0"/>
<rect x="799.2" y="519.7" class="st3" width="0" height="0"/>
<rect x="651.8" y="212.2" class="st4" width="0" height="0"/>
<rect x="458.9" y="147.9" class="st5" width="0" height="0"/>
<rect x="761" y="293.7" class="st1" width="0" height="0"/>
<rect x="628.6" y="190.1" class="st0" width="0" height="0"/>
<rect x="522.2" y="133" class="st3" width="0" height="0"/>
<rect x="771.4" y="620.6" class="st0" width="0" height="0"/>
<rect x="570.6" y="148.1" class="st0" width="0" height="0"/>
<rect x="798.1" y="442.3" class="st3" width="0" height="0"/>
<rect x="492" y="165.7" class="st1" width="0" height="0"/>
<rect x="739.5" y="264.5" class="st1" width="0" height="0"/>
<rect x="604" y="184.8" class="st3" width="0" height="0"/>
<rect x="267.7" y="730.8" class="st0" width="0" height="0"/>
<rect x="520" y="155.8" class="st4" width="0" height="0"/>
<rect x="465.4" y="180.3" class="st2" width="0" height="0"/>
<rect x="653.3" y="203" class="st4" width="0" height="0"/>
<rect x="490.7" y="111.8" class="st0" width="0" height="0"/>
<rect x="606.9" y="164.7" class="st1" width="0" height="0"/>
<rect x="550.9" y="133.7" class="st0" width="0" height="0"/>
<rect x="763.2" y="316.2" class="st3" width="0" height="0"/>
<rect x="489.7" y="188.4" class="st2" width="0" height="0"/>
<rect x="696.4" y="720.2" class="st4" width="0" height="0"/>
<rect x="579.7" y="183.6" class="st4" width="0" height="0"/>
<rect x="602.4" y="176.3" class="st3" width="0" height="0"/>
<rect x="492.3" y="121.1" class="st2" width="0" height="0"/>
<rect x="689.1" y="223.6" class="st1" width="0" height="0"/>
<rect x="730.9" y="281.7" class="st1" width="0" height="0"/>
<rect x="707.5" y="228.1" class="st1" width="0" height="0"/>
<rect x="736.6" y="289.4" class="st1" width="0" height="0"/>
<rect x="803.2" y="449.6" class="st3" width="0" height="0"/>
<rect x="668.9" y="222.1" class="st3" width="0" height="0"/>
<rect x="530.3" y="139.4" class="st4" width="0" height="0"/>
<rect x="551.2" y="155.9" class="st3" width="0" height="0"/>
<rect x="469.7" y="148.9" class="st2" width="0" height="0"/>
<rect x="782.1" y="353.7" class="st1" width="0" height="0"/>
<rect x="773.6" y="351.1" class="st1" width="0" height="0"/>
<rect x="742.7" y="282.6" class="st1" width="0" height="0"/>
<rect x="488.3" y="178.2" class="st2" width="0" height="0"/>
<rect x="477.5" y="178.7" class="st2" width="0" height="0"/>
<rect x="498.4" y="174.1" class="st0" width="0" height="0"/>
<rect x="716.4" y="259.2" class="st1" width="0" height="0"/>
<rect x="518.9" y="167.6" class="st2" width="0" height="0"/>
<rect x="709.1" y="266.1" class="st1" width="0" height="0"/>
<rect x="661.2" y="199.9" class="st3" width="0" height="0"/>
<rect x="497.3" y="183.3" class="st3" width="0" height="0"/>
<rect x="610.8" y="172.6" class="st4" width="0" height="0"/>
<rect x="480.3" y="188.7" class="st3" width="0" height="0"/>
<rect x="631.7" y="170.3" class="st0" width="0" height="0"/>
<rect x="806.7" y="525.3" class="st1" width="0" height="0"/>
<rect x="746.1" y="305.7" class="st1" width="0" height="0"/>
<rect x="598.3" y="191.3" class="st0" width="0" height="0"/>
<rect x="567.3" y="160.9" class="st0" width="0" height="0"/>
<rect x="470.1" y="139.8" class="st0" width="0" height="0"/>
<rect x="460.2" y="138" class="st0" width="0" height="0"/>
<rect x="719.9" y="289.4" class="st1" width="0" height="0"/>
<rect x="512.8" y="799" class="st1" width="0" height="0"/>
<rect x="250.4" y="715.6" class="st0" width="0" height="0"/>
<rect x="729.5" y="272.1" class="st1" width="0" height="0"/>
<rect x="518" y="182.4" class="st3" width="0" height="0"/>
<rect x="481.6" y="114.3" class="st0" width="0" height="0"/>
<rect x="545.2" y="162.5" class="st0" width="0" height="0"/>
<rect x="458.2" y="176.3" class="st0" width="0" height="0"/>
<rect x="479" y="163.4" class="st2" width="0" height="0"/>
<rect x="470.6" y="157.9" class="st1" width="0" height="0"/>
<rect x="716.7" y="229" class="st0" width="0" height="0"/>
<rect x="496.6" y="138.7" class="st0" width="0" height="0"/>
<rect x="630.9" y="178.3" class="st1" width="0" height="0"/>
<rect x="545.8" y="171.2" class="st0" width="0" height="0"/>
<rect x="754" y="300.1" class="st1" width="0" height="0"/>
<rect x="721.5" y="280.4" class="st1" width="0" height="0"/>
<rect x="662.7" y="191.4" class="st0" width="0" height="0"/>
<rect x="492.3" y="130" class="st2" width="0" height="0"/>
<rect x="523.6" y="175.6" class="st0" width="0" height="0"/>
<rect x="515" y="806.6" class="st0" width="0" height="0"/>
<rect x="712.4" y="704.8" class="st1" width="0" height="0"/>
<rect x="450.2" y="161" class="st2" width="0" height="0"/>
<rect x="504.1" y="133.8" class="st2" width="0" height="0"/>
<rect x="622.7" y="185" class="st3" width="0" height="0"/>
<rect x="526.5" y="163.4" class="st1" width="0" height="0"/>
<rect x="786.8" y="583.7" class="st1" width="0" height="0"/>
<rect x="585.4" y="165.9" class="st1" width="0" height="0"/>
<rect x="703.1" y="246.1" class="st2" width="0" height="0"/>
<rect x="489.8" y="156.4" class="st2" width="0" height="0"/>
<rect x="491.6" y="147.1" class="st0" width="0" height="0"/>
<rect x="500.1" y="155.5" class="st2" width="0" height="0"/>
<rect x="674.6" y="213.9" class="st1" width="0" height="0"/>
<rect x="524" y="122.5" class="st5" width="0" height="0"/>
<rect x="470.6" y="187.1" class="st2" width="0" height="0"/>
<rect x="501.1" y="164.8" class="st1" width="0" height="0"/>
<rect x="748.4" y="261.3" class="st1" width="0" height="0"/>
<rect x="546.8" y="148.2" class="st0" width="0" height="0"/>
<rect x="502.6" y="146.1" class="st0" width="0" height="0"/>
<rect x="521.8" y="144.3" class="st0" width="0" height="0"/>
<rect x="620.2" y="197.6" class="st3" width="0" height="0"/>
<rect x="478" y="134.5" class="st4" width="0" height="0"/>
<rect x="528.7" y="151.5" class="st4" width="0" height="0"/>
<rect x="480.2" y="145.1" class="st0" width="0" height="0"/>
<rect x="730.8" y="246.6" class="st1" width="0" height="0"/>
<rect x="753" y="268.8" class="st1" width="0" height="0"/>
<rect x="563.4" y="174.2" class="st0" width="0" height="0"/>
<rect x="700.8" y="236.3" class="st1" width="0" height="0"/>
<rect x="612.9" y="158.8" class="st1" width="0" height="0"/>
<rect x="542.6" y="180" class="st2" width="0" height="0"/>
<rect x="770.9" y="331.4" class="st3" width="0" height="0"/>
<rect x="693.3" y="252.9" class="st3" width="0" height="0"/>
<rect x="797.6" y="528.8" class="st1" width="0" height="0"/>
<rect x="582.7" y="174.3" class="st2" width="0" height="0"/>
<rect x="531.5" y="128.5" class="st2" width="0" height="0"/>
<rect x="808.4" y="441.6" class="st1" width="0" height="0"/>
<rect x="198.5" y="653" class="st2" width="0" height="0"/>
<rect x="454.3" y="168.7" class="st2" width="0" height="0"/>
<rect x="783.3" y="344.8" class="st0" width="0" height="0"/>
<rect x="749.4" y="276.4" class="st1" width="0" height="0"/>
<rect x="739.5" y="273.5" class="st1" width="0" height="0"/>
<rect x="486.4" y="137.4" class="st5" width="0" height="0"/>
<rect x="474" y="124.2" class="st2" width="0" height="0"/>
<rect x="553.7" y="142.2" class="st0" width="0" height="0"/>
<rect x="728.1" y="293.2" class="st1" width="0" height="0"/>
<rect x="590.8" y="149.6" class="st0" width="0" height="0"/>
<rect x="450.4" y="141.8" class="st2" width="0" height="0"/>
<rect x="588.4" y="157.8" class="st4" width="0" height="0"/>
<rect x="723.6" y="252.8" class="st1" width="0" height="0"/>
<rect x="693.5" y="244" class="st1" width="0" height="0"/>
<rect x="454.4" y="131" class="st0" width="0" height="0"/>
<rect x="466.6" y="129.7" class="st0" width="0" height="0"/>
<rect x="449.1" y="151.8" class="st2" width="0" height="0"/>
<rect x="503.3" y="124.5" class="st3" width="0" height="0"/>
<rect x="471.1" y="171.3" class="st2" width="0" height="0"/>
<rect x="710.9" y="237.9" class="st0" width="0" height="0"/>
<rect x="464.7" y="165.4" class="st2" width="0" height="0"/>
<rect x="483.2" y="125.1" class="st1" width="0" height="0"/>
<rect x="727.2" y="688.4" class="st0" width="0" height="0"/>
<rect x="537.8" y="799.2" class="st1" width="0" height="0"/>
<rect x="760.9" y="640.3" class="st3" width="0" height="0"/>
<rect x="800.3" y="420.9" class="st4" width="0" height="0"/>
<rect x="500.9" y="115.7" class="st4" width="0" height="0"/>
<rect x="483.6" y="170.5" class="st0" width="0" height="0"/>
<rect x="460" y="157.8" class="st2" width="0" height="0"/>
<g>
	<g>
		<circle class="st2" cx="467.7" cy="514" r="3.3"/>
		<circle class="st6" cx="449.2" cy="495.4" r="1"/>
		<circle class="st0" cx="451.2" cy="466.2" r="11.3"/>
		<circle class="st2" cx="476.9" cy="494" r="3.3"/>
		<circle class="st6" cx="463.5" cy="467.1" r="1"/>
		<circle class="st1" cx="442.1" cy="507.2" r="12.9"/>
		<circle class="st2" cx="437.3" cy="469.5" r="3"/>
		<circle class="st2" cx="467.6" cy="493.6" r="3.3"/>
		<circle class="st2" cx="485.5" cy="498.9" r="6.1"/>
		<circle class="st6" cx="445.3" cy="484.5" r="1"/>
		<circle class="st2" cx="472.3" cy="470.3" r="3.6"/>
		<circle class="st2" cx="477.5" cy="503.7" r="2.9"/>
		<circle class="st0" cx="458.9" cy="519.8" r="2.6"/>
		<circle class="st2" cx="502.7" cy="511.1" r="3.8"/>
		<circle class="st2" cx="495" cy="495" r="4.1"/>
		<circle class="st3" cx="492.4" cy="476.4" r="7.3"/>
		<circle class="st2" cx="484" cy="513.6" r="2.8"/>
		<circle class="st2" cx="511.6" cy="488.6" r="9.4"/>
		<circle class="st2" cx="436.7" cy="461.7" r="3.8"/>
		<circle class="st2" cx="433.4" cy="484" r="3.4"/>
		<circle class="st2" cx="451.6" cy="451.5" r="3.4"/>
		<circle class="st2" cx="471.5" cy="481.4" r="4.6"/>
		<circle class="st6" cx="476" cy="512.9" r="1"/>
		<circle class="st6" cx="459.1" cy="490.6" r="1"/>
		<circle class="st5" cx="498.7" cy="488.1" r="2.5"/>
		<circle class="st6" cx="460.8" cy="473.8" r="1"/>
		<circle class="st6" cx="457.4" cy="506.3" r="1"/>
		<circle class="st6" cx="442.5" cy="493.4" r="1"/>
		<circle class="st2" cx="464" cy="455" r="3.9"/>
		<circle class="st2" cx="488.5" cy="486" r="3"/>
		<circle class="st3" cx="449.8" cy="521" r="2.9"/>
		<circle class="st6" cx="461.9" cy="460.2" r="1"/>
		<circle class="st0" cx="491" cy="521.1" r="4.8"/>
		<circle class="st2" cx="482" cy="475.8" r="3.1"/>
		<circle class="st2" cx="443.1" cy="455" r="2.5"/>
		<circle class="st2" cx="478.3" cy="523.5" r="8.1"/>
		<circle class="st1" cx="503.6" cy="461.8" r="8.1"/>
		<circle class="st2" cx="481.6" cy="466.7" r="3.9"/>
		<circle class="st2" cx="493" cy="512.7" r="3.7"/>
		<circle class="st5" cx="435.6" cy="493.3" r="2.5"/>
		<circle class="st5" cx="452.7" cy="479.9" r="2.5"/>
		<circle class="st0" cx="473.1" cy="446.6" r="8.4"/>
		<circle class="st6" cx="454.8" cy="512.8" r="1"/>
		<circle class="st0" cx="466.4" cy="524.3" r="3.8"/>
		<circle class="st3" cx="472.8" cy="458.3" r="3"/>
		<circle class="st2" cx="494.8" cy="455" r="2.8"/>
		<circle class="st6" cx="503.3" cy="482.3" r="1"/>
		<circle class="st5" cx="480.4" cy="485.6" r="5.2"/>
		<circle class="st6" cx="496.6" cy="467.7" r="1"/>
		<circle class="st3" cx="459.2" cy="447" r="5.4"/>
		<circle class="st5" cx="430.2" cy="497.5" r="2.5"/>
		<circle class="st0" cx="489.1" cy="462.3" r="4.7"/>
		<circle class="st2" cx="503.4" cy="473.6" r="3.7"/>
		<circle class="st2" cx="461.7" cy="481.8" r="3.2"/>
		<circle class="st0" cx="511.7" cy="475.4" r="3.8"/>
		<circle class="st0" cx="442.4" cy="476.8" r="2.5"/>
		<circle class="st2" cx="480.7" cy="455.8" r="2.5"/>
		<circle class="st0" cx="467.9" cy="503.8" r="4.9"/>
		<circle class="st6" cx="454.1" cy="500.2" r="1"/>
		<circle class="st0" cx="493.7" cy="504.3" r="3.7"/>
		<circle class="st5" cx="502.9" cy="499.3" r="2.5"/>
		<circle class="st1" cx="485.5" cy="449" r="2.5"/>
		
			<ellipse transform="matrix(0.1602 -0.9871 0.9871 0.1602 -66.5025 924.6843)" class="st0" cx="510.2" cy="501.4" rx="3.4" ry="3.4"/>
		<circle class="st2" cx="431.1" cy="475.3" r="3.8"/>
	</g>
	<circle class="st7" cx="472.6" cy="484.4" r="75"/>
</g>
</svg>
