<?xml version="1.0" encoding="utf-8"?>
<!-- Generator: Adobe Illustrator 25.1.0, SVG Export Plug-In . SVG Version: 6.00 Build 0)  -->
<svg version="1.1" id="viz" xmlns="http://www.w3.org/2000/svg" xmlns:xlink="http://www.w3.org/1999/xlink" x="0px" y="0px"
	 viewBox="0 0 952 952" style="enable-background:new 0 0 952 952;" xml:space="preserve">
<style type="text/css">
	.st0{fill:#FFFFFF;stroke:#E3E3E3;}
	.st1{fill:#FF5555;}
	.st2{fill:#BD93F9;}
	.st3{fill:#6272A4;}
	.st4{fill:#E3E3E3;fill-opacity:0.1;}
	.st5{fill:#FF79C6;}
	.st6{fill:#50FA7B;}
	.st7{fill:#FFB86C;}
</style>
<g>
	<circle class="st0" cx="476" cy="476" r="333.2"/>
	<rect x="473.8" y="477.6" class="st1" width="0" height="0"/>
	<rect x="467.5" y="484.5" class="st2" width="0" height="0"/>
	<rect x="474.3" y="469.1" class="st3" width="0" height="0"/>
	<rect x="480.8" y="483.7" class="st2" width="0" height="0"/>
	<rect x="462.7" y="475.6" class="st3" width="0" height="0"/>
	<circle class="st4" cx="484.3" cy="472.5" r="1"/>
	<rect x="470.9" y="493.2" class="st5" width="0" height="0"/>
	<rect x="467.5" y="463.6" class="st6" width="0" height="0"/>
	<rect x="490.3" y="480" class="st1" width="0" height="0"/>
	<rect x="458.3" y="486" class="st7" width="0" height="0"/>
	<rect x="486.9" y="463.8" class="st2" width="0" height="0"/>
	<rect x="480.6" y="493.2" class="st1" width="0" height="0"/>
	<rect x="459" y="467.5" class="st5" width="0" height="0"/>
	<rect x="495.7" y="470.8" class="st1" width="0" height="0"/>
	<rect x="460" y="495.1" class="st1" width="0" height="0"/>
	<rect x="476.2" y="459.4" class="st5" width="0" height="0"/>
	<rect x="491.4" y="489" class="st2" width="0" height="0"/>
	<rect x="451.9" y="479.8" class="st2" width="0" height="0"/>
	<rect x="494.3" y="458.9" class="st5" width="0" height="0"/>
	<rect x="468.8" y="503" class="st3" width="0" height="0"/>
	<circle class="st4" cx="461.2" cy="456.9" r="1"/>
	<rect x="499.5" y="481.2" class="st1" width="0" height="0"/>
	<rect x="447.6" y="489.4" class="st6" width="0" height="0"/>
	<rect x="484.5" y="453.8" class="st2" width="0" height="0"/>
	<rect x="489.8" y="497.6" class="st3" width="0" height="0"/>
	<rect x="448.7" y="472" class="st6" width="0" height="0"/>
	<rect x="503.6" y="464.1" class="st1" width="0" height="0"/>
	<rect x="460.5" y="506.5" class="st2" width="0" height="0"/>
	<rect x="468.5" y="449.9" class="st3" width="0" height="0"/>
	<rect x="502.1" y="491.6" class="st3" width="0" height="0"/>
	<rect x="440.4" y="481.5" class="st1" width="0" height="0"/>
	<rect x="493.7" y="448.4" class="st3" width="0" height="0"/>
	<rect x="480.2" y="503.3" class="st5" width="0" height="0"/>
	<rect x="451.5" y="461.2" class="st3" width="0" height="0"/>
	<circle class="st4" cx="505.9" cy="473.7" r="1"/>
	<rect x="451.1" y="498.2" class="st3" width="0" height="0"/>
	<rect x="477.3" y="448.2" class="st3" width="0" height="0"/>
	<rect x="499.5" y="500.9" class="st6" width="0" height="0"/>
	<rect x="437.7" y="472.5" class="st1" width="0" height="0"/>
	<rect x="503.1" y="454.3" class="st6" width="0" height="0"/>
	<rect x="468.4" y="514" class="st3" width="0" height="0"/>
	<rect x="458.4" y="448.2" class="st3" width="0" height="0"/>
	<rect x="509.1" y="484.3" class="st5" width="0" height="0"/>
	<rect x="437.4" y="490.9" class="st3" width="0" height="0"/>
	<rect x="486.2" y="442.5" class="st2" width="0" height="0"/>
	<rect x="490.8" y="506.8" class="st5" width="0" height="0"/>
	<rect x="441" y="463.7" class="st2" width="0" height="0"/>
	<rect x="513.4" y="460.1" class="st2" width="0" height="0"/>
	<rect x="453" y="509.8" class="st3" width="0" height="0"/>
	<rect x="469" y="440.1" class="st2" width="0" height="0"/>
	<rect x="509.9" y="501.6" class="st3" width="0" height="0"/>
	<rect x="430.4" y="483.3" class="st5" width="0" height="0"/>
	<rect x="503.5" y="444.1" class="st5" width="0" height="0"/>
	<rect x="477.6" y="511.9" class="st6" width="0" height="0"/>
	<rect x="447" y="454" class="st3" width="0" height="0"/>
	<rect x="514.5" y="470.2" class="st5" width="0" height="0"/>
	<rect x="438.3" y="499.3" class="st3" width="0" height="0"/>
	<rect x="478.2" y="436.7" class="st3" width="0" height="0"/>
	<rect x="498.8" y="512.1" class="st2" width="0" height="0"/>
	<rect x="430.6" y="462.3" class="st3" width="0" height="0"/>
	<rect x="511.7" y="449.8" class="st3" width="0" height="0"/>
	<circle class="st4" cx="460.3" cy="518.3" r="1"/>
	<circle class="st4" cx="459.8" cy="438.5" r="1"/>
	<rect x="513.5" y="492.7" class="st7" width="0" height="0"/>
	<rect x="427.9" y="493.7" class="st2" width="0" height="0"/>
	<rect x="496.1" y="437.3" class="st2" width="0" height="0"/>
	<rect x="487.5" y="515.2" class="st3" width="0" height="0"/>
	<rect x="435.8" y="454.1" class="st3" width="0" height="0"/>
	<rect x="522.7" y="461.8" class="st1" width="0" height="0"/>
	<rect x="443.6" y="506" class="st2" width="0" height="0"/>
	<rect x="470.8" y="428.8" class="st3" width="0" height="0"/>
	<circle class="st4" cx="507.9" cy="510.9" r="1"/>
	<rect x="428.6" y="472.5" class="st2" width="0" height="0"/>
	<circle class="st4" cx="513.6" cy="440.2" r="1"/>
	<rect x="469.4" y="524.6" class="st5" width="0" height="0"/>
	<rect x="449.9" y="444.6" class="st5" width="0" height="0"/>
	<circle class="st4" cx="517.1" cy="480" r="1"/>
	<rect x="424.4" y="502.2" class="st3" width="0" height="0"/>
	<rect x="489.3" y="431.7" class="st3" width="0" height="0"/>
	<rect x="502.4" y="521.9" class="st6" width="0" height="0"/>
	<rect x="426.1" y="452.6" class="st5" width="0" height="0"/>
	<rect x="526.3" y="454" class="st5" width="0" height="0"/>
	<circle class="st4" cx="452.9" cy="523.8" r="1"/>
	<rect x="461.5" y="428.2" class="st2" width="0" height="0"/>
	<rect x="519.9" y="502.9" class="st2" width="0" height="0"/>
	<rect x="420" y="487.9" class="st1" width="0" height="0"/>
	<rect x="506.2" y="434.6" class="st1" width="0" height="0"/>
	<rect x="479.1" y="521.7" class="st1" width="0" height="0"/>
	<rect x="440.5" y="446.4" class="st1" width="0" height="0"/>
	<rect x="524.8" y="471.5" class="st2" width="0" height="0"/>
	<circle class="st4" cx="432" cy="507.3" r="1"/>
	<rect x="480.7" y="426.8" class="st1" width="0" height="0"/>
	<rect x="512" y="519.2" class="st2" width="0" height="0"/>
	<rect x="421.2" y="464.2" class="st5" width="0" height="0"/>
	<rect x="520.8" y="446.8" class="st1" width="0" height="0"/>
	<circle class="st4" cx="461.5" cy="530.1" r="1"/>
	<rect x="451" y="435" class="st1" width="0" height="0"/>
	<rect x="523.2" y="494.3" class="st1" width="0" height="0"/>
	<rect x="415.4" y="503.1" class="st3" width="0" height="0"/>
	<rect x="495.6" y="423.7" class="st2" width="0" height="0"/>
	<rect x="493.3" y="522.9" class="st1" width="0" height="0"/>
	<rect x="430.8" y="443.3" class="st1" width="0" height="0"/>
	<rect x="532.6" y="464.5" class="st1" width="0" height="0"/>
	<rect x="446.9" y="517.1" class="st2" width="0" height="0"/>
	<rect x="461.6" y="419.1" class="st1" width="0" height="0"/>
	<rect x="519" y="511.3" class="st3" width="0" height="0"/>
	<rect x="421.7" y="478.1" class="st3" width="0" height="0"/>
	<rect x="517" y="431" class="st3" width="0" height="0"/>
	<rect x="477.4" y="531.7" class="st2" width="0" height="0"/>
	<rect x="440.8" y="437.4" class="st2" width="0" height="0"/>
	<rect x="524.8" y="484.6" class="st2" width="0" height="0"/>
	<circle class="st4" cx="422.4" cy="512.3" r="1"/>
	<rect x="486" y="419.3" class="st3" width="0" height="0"/>
	<rect x="506.4" y="531.4" class="st3" width="0" height="0"/>
	<rect x="416.5" y="455.1" class="st1" width="0" height="0"/>
	<rect x="535.9" y="451.3" class="st1" width="0" height="0"/>
	<rect x="452.7" y="534.4" class="st3" width="0" height="0"/>
	<rect x="452.1" y="425.2" class="st2" width="0" height="0"/>
	<rect x="530.2" y="502.8" class="st7" width="0" height="0"/>
	<rect x="413.1" y="493.9" class="st3" width="0" height="0"/>
	<rect x="503.4" y="426.8" class="st3" width="0" height="0"/>
	<rect x="486.8" y="529.2" class="st5" width="0" height="0"/>
	<circle class="st4" cx="426.8" cy="435.3" r="1"/>
	<rect x="531.6" y="477.1" class="st2" width="0" height="0"/>
	<rect x="437.8" y="514.4" class="st2" width="0" height="0"/>
	<rect x="472.8" y="419.6" class="st1" width="0" height="0"/>
	<rect x="522.5" y="520.3" class="st2" width="0" height="0"/>
	<circle class="st4" cx="414.5" cy="472.7" r="1"/>
	<rect x="525.3" y="437.2" class="st3" width="0" height="0"/>
	<rect x="469.9" y="536.6" class="st3" width="0" height="0"/>
	<rect x="443" y="427.3" class="st1" width="0" height="0"/>
	<rect x="532.6" y="489.7" class="st3" width="0" height="0"/>
	<rect x="411.4" y="512.4" class="st1" width="0" height="0"/>
	<rect x="492.9" y="412.8" class="st2" width="0" height="0"/>
	<rect x="497.5" y="532.9" class="st7" width="0" height="0"/>
	<rect x="419.6" y="444.5" class="st5" width="0" height="0"/>
	<rect x="540.3" y="459.9" class="st3" width="0" height="0"/>
	<rect x="443.9" y="529.9" class="st3" width="0" height="0"/>
	<rect x="458.2" y="411.7" class="st2" width="0" height="0"/>
	<circle class="st4" cx="529.6" cy="512.4" r="1"/>
	<rect x="411" y="482.3" class="st2" width="0" height="0"/>
	<rect x="513.7" y="422.5" class="st1" width="0" height="0"/>
	<rect x="483.6" y="539.2" class="st1" width="0" height="0"/>
	<rect x="434" y="429.6" class="st1" width="0" height="0"/>
	<rect x="539.2" y="482.9" class="st5" width="0" height="0"/>
	<rect x="428.8" y="519.6" class="st7" width="0" height="0"/>
	<rect x="480.4" y="411.5" class="st6" width="0" height="0"/>
	<rect x="515.3" y="528.4" class="st6" width="0" height="0"/>
	<rect x="410.7" y="464.3" class="st1" width="0" height="0"/>
	<rect x="531.9" y="442.8" class="st2" width="0" height="0"/>
	<rect x="460.8" y="540.8" class="st2" width="0" height="0"/>
	<rect x="447.9" y="416.4" class="st1" width="0" height="0"/>
	<rect x="537.6" y="496.8" class="st2" width="0" height="0"/>
	<circle class="st2" cx="485.4" cy="144.9" r="9.3"/>
	<rect x="504.4" y="416.7" class="st3" width="0" height="0"/>
	<circle class="st4" cx="493.1" cy="540.2" r="1"/>
	<rect x="416.2" y="434.1" class="st5" width="0" height="0"/>
	<rect x="540" y="471.7" class="st5" width="0" height="0"/>
	<rect x="436.7" y="524.7" class="st5" width="0" height="0"/>
	<rect x="470.1" y="410.8" class="st7" width="0" height="0"/>
	<rect x="532.1" y="523.2" class="st2" width="0" height="0"/>
	<rect x="401.9" y="480.8" class="st3" width="0" height="0"/>
	<rect x="527.2" y="427.1" class="st1" width="0" height="0"/>
	<rect x="473.7" y="544.5" class="st3" width="0" height="0"/>
	<rect x="436.1" y="418.3" class="st2" width="0" height="0"/>
	<rect x="546.8" y="489.5" class="st3" width="0" height="0"/>
	<rect x="417.7" y="520.3" class="st3" width="0" height="0"/>
	<rect x="495.1" y="404.2" class="st1" width="0" height="0"/>
	<rect x="508.2" y="541.1" class="st2" width="0" height="0"/>
	<rect x="407.7" y="451.1" class="st2" width="0" height="0"/>
	<rect x="545.6" y="450.5" class="st7" width="0" height="0"/>
	<rect x="445.9" y="541.6" class="st3" width="0" height="0"/>
	<rect x="451.8" y="405.7" class="st3" width="0" height="0"/>
	<rect x="540.7" y="506.7" class="st1" width="0" height="0"/>
	<rect x="403.9" y="491" class="st3" width="0" height="0"/>
	<rect x="514.8" y="412.5" class="st2" width="0" height="0"/>
	<rect x="488.9" y="548.7" class="st1" width="0" height="0"/>
	<rect x="421.8" y="426.3" class="st3" width="0" height="0"/>
	<rect x="549.6" y="471.8" class="st6" width="0" height="0"/>
	<rect x="430.5" y="533.7" class="st2" width="0" height="0"/>
	<rect x="474.5" y="402.3" class="st2" width="0" height="0"/>
	<rect x="525.2" y="530.6" class="st1" width="0" height="0"/>
	<rect x="402.8" y="471.4" class="st1" width="0" height="0"/>
	<rect x="535.1" y="431.6" class="st1" width="0" height="0"/>
	<rect x="465.2" y="549.6" class="st3" width="0" height="0"/>
	<rect x="441.3" y="410.7" class="st1" width="0" height="0"/>
	<rect x="547.2" y="499" class="st1" width="0" height="0"/>
	<rect x="405.8" y="501.8" class="st3" width="0" height="0"/>
	<rect x="504.8" y="407.9" class="st5" width="0" height="0"/>
	<rect x="500.5" y="546.1" class="st3" width="0" height="0"/>
	<rect x="410.1" y="442.1" class="st1" width="0" height="0"/>
	<circle class="st4" cx="548.8" cy="462.1" r="1"/>
	<rect x="437.6" y="538.9" class="st3" width="0" height="0"/>
	<rect x="463.4" y="403.2" class="st2" width="0" height="0"/>
	<rect x="539" y="515.5" class="st1" width="0" height="0"/>
	<ellipse transform="matrix(0.1602 -0.9871 0.9871 0.1602 286.9078 616.4412)" class="st2" cx="505.7" cy="139.6" rx="11" ry="11"/>
	<rect x="523.5" y="419.1" class="st5" width="0" height="0"/>
	<rect x="479.2" y="550.3" class="st6" width="0" height="0"/>
	<rect x="428" y="419.8" class="st1" width="0" height="0"/>
	<rect x="549.2" y="480.9" class="st7" width="0" height="0"/>
	<rect x="423.2" y="527.9" class="st2" width="0" height="0"/>
	<rect x="484.8" y="403" class="st6" width="0" height="0"/>
	<rect x="517.6" y="537.6" class="st1" width="0" height="0"/>
	<rect x="403.1" y="460" class="st1" width="0" height="0"/>
	<rect x="541.3" y="440.5" class="st3" width="0" height="0"/>
	<rect x="453.6" y="547.1" class="st3" width="0" height="0"/>
</g>
</svg>
