<?xml version="1.0" encoding="utf-8"?>
<!-- Generator: Adobe Illustrator 25.1.0, SVG Export Plug-In . SVG Version: 6.00 Build 0)  -->
<svg version="1.1" id="viz" xmlns="http://www.w3.org/2000/svg" xmlns:xlink="http://www.w3.org/1999/xlink" x="0px" y="0px"
	 viewBox="0 0 952 952" style="enable-background:new 0 0 952 952;" xml:space="preserve">
<style type="text/css">
	.st0{fill:#FFFFFF;stroke:#E3E3E3;}
	.st1{fill:#FF5555;}
	.st2{fill:#BD93F9;}
	.st3{fill:#6272A4;}
	.st4{fill:#E3E3E3;fill-opacity:0.1;}
	.st5{fill:#FF79C6;}
	.st6{fill:#50FA7B;}
	.st7{fill:#FFB86C;}
</style>
<g>
	<circle class="st0" cx="476" cy="476" r="333.2"/>
	<circle class="st1" cx="482.6" cy="128.2" r="3.1"/>
	<circle class="st2" cx="503.7" cy="177.6" r="7.7"/>
	<rect x="469.5" y="483.9" class="st3" width="0" height="0"/>
	<circle class="st2" cx="663" cy="227.3" r="15.8"/>
	<circle class="st3" cx="494.8" cy="144.8" r="3.4"/>
	<circle class="st4" cx="483.7" cy="495.8" r="1"/>
	<circle class="st5" cx="806.5" cy="510.2" r="6.2"/>
	<circle class="st6" cx="644.2" cy="208.9" r="11.2"/>
	<rect x="489.8" y="489.3" class="st1" width="0" height="0"/>
	<circle class="st7" cx="491.6" cy="122.9" r="2.8"/>
	<circle class="st2" cx="751.4" cy="315.3" r="11.5"/>
	<circle class="st1" cx="619.7" cy="199.6" r="9.6"/>
	
		<ellipse transform="matrix(0.3827 -0.9239 0.9239 0.3827 188.2772 559.5768)" class="st5" cx="512.9" cy="138.9" rx="6.2" ry="6.2"/>
	<circle class="st1" cx="771.7" cy="620" r="14.8"/>
	<circle class="st1" cx="561.7" cy="181.6" r="5.6"/>
	<circle class="st5" cx="815.7" cy="434.6" r="5"/>
	<circle class="st2" cx="467.9" cy="178.5" r="8.2"/>
	<circle class="st2" cx="741.7" cy="258.3" r="11.8"/>
	<circle class="st5" cx="605.6" cy="159.9" r="4.9"/>
	<rect x="451.7" y="490" class="st3" width="0" height="0"/>
	<circle class="st4" cx="432" cy="478.9" r="1"/>
	<circle class="st1" cx="267.7" cy="730.8" r="3.6"/>
	<circle class="st6" cx="526.6" cy="156.2" r="6.6"/>
	<rect x="478.4" y="486.2" class="st2" width="0" height="0"/>
	<circle class="st3" cx="458.2" cy="150.9" r="7.8"/>
	<circle class="st6" cx="657.1" cy="188.3" r="11.1"/>
	<circle class="st1" cx="466.9" cy="166.7" r="3.1"/>
	<circle class="st2" cx="598.9" cy="192.5" r="12.2"/>
	<rect x="459.2" y="484.2" class="st3" width="0" height="0"/>
	<rect x="475" y="473.3" class="st3" width="0" height="0"/>
	<circle class="st1" cx="561.7" cy="150.2" r="3.5"/>
	<rect x="473.5" y="463.7" class="st3" width="0" height="0"/>
	<circle class="st5" cx="770.7" cy="319.6" r="9.2"/>
	<circle class="st3" cx="506.1" cy="118.4" r="9.4"/>
	<circle class="st4" cx="484.2" cy="468.8" r="1"/>
	<rect x="494.1" y="453.8" class="st3" width="0" height="0"/>
	<rect x="462.4" y="447.7" class="st3" width="0" height="0"/>
	<circle class="st6" cx="696.4" cy="720.2" r="12"/>
	<rect x="463.5" y="522.9" class="st1" width="0" height="0"/>
	<circle class="st6" cx="578.6" cy="184.2" r="9.5"/>
	<rect x="471.9" y="494.6" class="st3" width="0" height="0"/>
	<rect x="452.1" y="450.4" class="st3" width="0" height="0"/>
	<circle class="st5" cx="601.8" cy="170.9" r="7.1"/>
	<circle class="st3" cx="478" cy="127.5" r="3.8"/>
	<circle class="st2" cx="699.7" cy="209.8" r="12.7"/>
	<rect x="463.1" y="513.2" class="st5" width="0" height="0"/>
	<circle class="st2" cx="705.8" cy="299.5" r="14.3"/>
	<circle class="st2" cx="702.3" cy="234.9" r="12.8"/>
	<rect x="459.3" y="501.3" class="st3" width="0" height="0"/>
	<circle class="st2" cx="727" cy="294.5" r="7.7"/>
	<rect x="500.3" y="497.4" class="st3" width="0" height="0"/>
	<circle class="st5" cx="789.6" cy="437.1" r="3.9"/>
	<circle class="st5" cx="681.7" cy="216.1" r="5.2"/>
	<circle class="st6" cx="530.3" cy="169.4" r="7.1"/>
	<rect x="455.4" y="476.1" class="st3" width="0" height="0"/>
	<circle class="st5" cx="554.8" cy="160.4" r="4.7"/>
	<circle class="st3" cx="485.9" cy="142.1" r="4.4"/>
	<rect x="450.9" y="462.9" class="st3" width="0" height="0"/>
	<circle class="st2" cx="773.5" cy="354.2" r="14.4"/>
	<rect x="462.3" y="465.6" class="st3" width="0" height="0"/>
	<rect x="509.5" y="487.6" class="st3" width="0" height="0"/>
	<circle class="st4" cx="468.7" cy="504.2" r="1"/>
	<circle class="st4" cx="458.6" cy="457.1" r="1"/>
	<rect x="492.9" y="479.5" class="st7" width="0" height="0"/>
	<circle class="st2" cx="794.2" cy="345.1" r="7.1"/>
	<circle class="st2" cx="763" cy="247.5" r="14.1"/>
	<circle class="st3" cx="479.1" cy="149" r="5.9"/>
	<circle class="st3" cx="466.2" cy="121.2" r="3.8"/>
	<circle class="st1" cx="475.9" cy="193.5" r="8.3"/>
	<circle class="st2" cx="709.3" cy="278.4" r="8.7"/>
	<circle class="st3" cx="519.3" cy="131.2" r="3.4"/>
	<circle class="st4" cx="483.2" cy="511.8" r="1"/>
	<circle class="st2" cx="741.5" cy="239.1" r="11.1"/>
	<circle class="st4" cx="483.7" cy="478.9" r="1"/>
	<circle class="st5" cx="662.2" cy="202.1" r="2.5"/>
	<circle class="st5" cx="503" cy="142.8" r="5"/>
	<circle class="st4" cx="507" cy="468.1" r="1"/>
	<rect x="442.1" y="485.5" class="st3" width="0" height="0"/>
	<rect x="489.3" y="461.4" class="st3" width="0" height="0"/>
	<circle class="st6" cx="613.4" cy="151" r="7"/>
	<rect x="444.7" y="478.1" class="st5" width="0" height="0"/>
	<circle class="st5" cx="460.9" cy="190.3" r="6.2"/>
	<circle class="st1" cx="616" cy="187.4" r="2.5"/>
	<circle class="st2" cx="817" cy="530.8" r="15.5"/>
	<circle class="st2" cx="757.4" cy="301.2" r="4.7"/>
	<circle class="st1" cx="616.6" cy="164.7" r="6.6"/>
	<circle class="st1" cx="571.7" cy="145" r="4.7"/>
	<circle class="st1" cx="450.3" cy="177.6" r="8.6"/>
	<circle class="st1" cx="494.7" cy="192.4" r="8.7"/>
	<circle class="st2" cx="761.8" cy="264.1" r="7.5"/>
	<circle class="st2" cx="515.8" cy="791" r="2.5"/>
	<circle class="st1" cx="250.4" cy="715.6" r="5.6"/>
	<circle class="st2" cx="734.1" cy="274.3" r="11.1"/>
	<ellipse transform="matrix(0.3827 -0.9239 0.9239 0.3827 163.2653 578.162)" class="st5" cx="514.3" cy="166.9" rx="8" ry="8"/>
	<circle class="st1" cx="452.8" cy="163" r="4.7"/>
	<circle class="st4" cx="473.5" cy="513.2" r="1"/>
	<circle class="st1" cx="553.3" cy="133.3" r="14.4"/>
	<circle class="st1" cx="475.5" cy="137.2" r="7.7"/>
	<circle class="st3" cx="505.2" cy="153.3" r="4.7"/>
	<circle class="st2" cx="487.2" cy="168.1" r="12.3"/>
	<circle class="st1" cx="723" cy="208.3" r="11.2"/>
	<rect x="443.7" y="456.3" class="st1" width="0" height="0"/>
	<circle class="st1" cx="473.2" cy="164.5" r="2.5"/>
	<circle class="st2" cx="632.6" cy="170.6" r="9.8"/>
	<circle class="st1" cx="544.3" cy="181.6" r="12.1"/>
	<rect x="492.5" y="509.8" class="st3" width="0" height="0"/>
	<rect x="461.7" y="493.2" class="st3" width="0" height="0"/>
	<rect x="480" y="457.1" class="st3" width="0" height="0"/>
	<rect x="478.5" y="502.9" class="st2" width="0" height="0"/>
	<circle class="st2" cx="772" cy="300" r="11.1"/>
	<circle class="st2" cx="731.5" cy="308.8" r="11.3"/>
	<circle class="st1" cx="658.1" cy="206.6" r="2.5"/>
	<rect x="483.9" y="449.2" class="st3" width="0" height="0"/>
	<circle class="st3" cx="486.2" cy="184.3" r="3"/>
	
		<ellipse transform="matrix(0.1602 -0.9871 0.9871 0.1602 283.7813 636.2762)" class="st1" cx="515.8" cy="151.4" rx="5.7" ry="5.7"/>
	<circle class="st1" cx="513.5" cy="805.3" r="11.5"/>
	<rect x="453.7" y="510.1" class="st3" width="0" height="0"/>
	<circle class="st2" cx="712.4" cy="704.8" r="7.8"/>
	<rect x="505.9" y="505.3" class="st7" width="0" height="0"/>
	<circle class="st3" cx="479" cy="182.9" r="3.5"/>
	<circle class="st3" cx="504.4" cy="164.6" r="4.4"/>
	<circle class="st5" cx="623.2" cy="183.8" r="5.1"/>
	<rect x="469.2" y="454.9" class="st7" width="0" height="0"/>
	<circle class="st2" cx="526.9" cy="118.1" r="11"/>
	<circle class="st2" cx="786.8" cy="583.6" r="10.1"/>
	<rect x="473.5" y="446.8" class="st1" width="0" height="0"/>
	<circle class="st2" cx="590.2" cy="150.9" r="13.7"/>
	<circle class="st4" cx="432.4" cy="487.7" r="1"/>
	<circle class="st3" cx="710.5" cy="221.3" r="4.4"/>
	<circle class="st3" cx="496.5" cy="153.4" r="3.6"/>
	<circle class="st1" cx="503.6" cy="131.6" r="2.8"/>
	<circle class="st3" cx="468.7" cy="156.7" r="6.2"/>
	<rect x="438.9" y="505.3" class="st1" width="0" height="0"/>
	<circle class="st2" cx="677.3" cy="199.2" r="12.8"/>
	<circle class="st7" cx="537" cy="129.4" r="3"/>
	<rect x="447.5" y="470.2" class="st5" width="0" height="0"/>
	<rect x="491.5" y="501.2" class="st3" width="0" height="0"/>
	<circle class="st3" cx="499.8" cy="158.7" r="2.8"/>
	<circle class="st2" cx="481.2" cy="110.3" r="14.1"/>
	<circle class="st4" cx="500.5" cy="513" r="1"/>
	<circle class="st2" cx="751.3" cy="269.8" r="8.2"/>
	<circle class="st1" cx="541.4" cy="157.6" r="9.7"/>
	<circle class="st1" cx="462.5" cy="138.7" r="4.8"/>
	
		<ellipse transform="matrix(0.3827 -0.9239 0.9239 0.3827 146.822 596.2705)" class="st1" cx="519.6" cy="188.3" rx="13.2" ry="13.2"/>
	<circle class="st5" cx="634" cy="188.7" r="6.9"/>
	<rect x="442.8" y="495.2" class="st7" width="0" height="0"/>
	<circle class="st6" cx="441.5" cy="158" r="10.3"/>
	<circle class="st6" cx="529.1" cy="141.3" r="10.4"/>
	<circle class="st1" cx="458.3" cy="117.1" r="7.3"/>
	<circle class="st2" cx="718.8" cy="255.8" r="15.1"/>
	<circle class="st2" cx="720.6" cy="290.2" r="5.9"/>
	<circle class="st1" cx="567.6" cy="164" r="11.2"/>
	<circle class="st2" cx="722.5" cy="229.8" r="10.7"/>
	<circle class="st2" cx="613.1" cy="178.4" r="6.3"/>
	<circle class="st3" cx="554.9" cy="152.9" r="4.3"/>
	<circle class="st4" cx="481.7" cy="522.7" r="1"/>
	<circle class="st5" cx="767.8" cy="334" r="2.5"/>
	<circle class="st5" cx="700.3" cy="252.8" r="6.2"/>
	<rect x="444.2" y="512.9" class="st5" width="0" height="0"/>
	<rect x="465.5" y="474.3" class="st7" width="0" height="0"/>
	<circle class="st2" cx="785.6" cy="522.4" r="16.5"/>
	<circle class="st3" cx="587.2" cy="170.4" r="4.6"/>
	<rect x="500.4" y="461.7" class="st1" width="0" height="0"/>
	<circle class="st3" cx="525.5" cy="164" r="3.5"/>
	<circle class="st2" cx="803.2" cy="451.2" r="15.1"/>
	<circle class="st3" cx="198.5" cy="653" r="11.1"/>
	<circle class="st3" cx="464.5" cy="143.7" r="2.8"/>
	<circle class="st1" cx="785" cy="339.1" r="3.5"/>
	<circle class="st2" cx="768" cy="279.7" r="9"/>
	<circle class="st2" cx="748.2" cy="291.9" r="13.2"/>
	<circle class="st7" cx="478.1" cy="155.7" r="2.7"/>
	<rect x="453.4" y="519.9" class="st3" width="0" height="0"/>
	<circle class="st3" cx="470.7" cy="125.5" r="4.4"/>
	<circle class="st1" cx="552" cy="166.8" r="4.1"/>
	<rect x="433.1" y="497.2" class="st3" width="0" height="0"/>
	<circle class="st2" cx="715.6" cy="276.6" r="8.2"/>
	<circle class="st1" cx="580.1" cy="167.2" r="3.9"/>
	<circle class="st3" cx="470.9" cy="169.1" r="3.1"/>
	<circle class="st6" cx="591.9" cy="177.8" r="4.6"/>
	<circle class="st2" cx="693.2" cy="273.8" r="14.2"/>
	<circle class="st2" cx="684.6" cy="227.3" r="9.4"/>
	<rect x="491.1" y="519.7" class="st1" width="0" height="0"/>
	<circle class="st1" cx="508.8" cy="131.4" r="2.7"/>
	<rect x="494.6" y="470.1" class="st1" width="0" height="0"/>
	<rect x="472.7" y="523" class="st3" width="0" height="0"/>
	<circle class="st1" cx="469.8" cy="147.8" r="3.1"/>
	<rect x="510.6" y="496.3" class="st1" width="0" height="0"/>
	<circle class="st3" cx="462.6" cy="129.5" r="4.6"/>
	<circle class="st5" cx="488.9" cy="149" r="4.8"/>
	<circle class="st3" cx="492.3" cy="132.6" r="8.2"/>
	<circle class="st1" cx="678.8" cy="250.6" r="13.8"/>
	<circle class="st4" cx="502.6" cy="476.8" r="1"/>
	<circle class="st3" cx="495.8" cy="120.1" r="2.9"/>
	<circle class="st2" cx="446.2" cy="134.8" r="11.8"/>
	<circle class="st1" cx="727.2" cy="688.4" r="9.8"/>
	<circle class="st2" cx="537.7" cy="799.7" r="6"/>
	<circle class="st5" cx="760.1" cy="641.7" r="9.5"/>
	<circle class="st6" cx="800" cy="418.6" r="17.1"/>
	<rect x="437.9" y="463.7" class="st1" width="0" height="0"/>
	<rect x="499.7" y="487.7" class="st7" width="0" height="0"/>
	<rect x="449.7" y="501.6" class="st2" width="0" height="0"/>
	<circle class="st6" cx="459.8" cy="166.7" r="6"/>
	<circle class="st1" cx="493.1" cy="182.2" r="2.6"/>
	<rect x="435.3" y="471.4" class="st1" width="0" height="0"/>
	<rect x="511.7" y="478.8" class="st3" width="0" height="0"/>
	<circle class="st3" cx="499.4" cy="107.1" r="3.1"/>
</g>
</svg>
