<?xml version="1.0" encoding="utf-8"?>
<!-- Generator: Adobe Illustrator 25.1.0, SVG Export Plug-In . SVG Version: 6.00 Build 0)  -->
<svg version="1.1" id="viz" xmlns="http://www.w3.org/2000/svg" xmlns:xlink="http://www.w3.org/1999/xlink" x="0px" y="0px"
	 viewBox="0 0 952 952" style="enable-background:new 0 0 952 952;" xml:space="preserve">
<style type="text/css">
	.st0{fill:#FFFFFF;stroke:#E3E3E3;}
	.st1{fill:#FF5555;}
	.st2{fill:#BD93F9;}
	.st3{fill:#6272A4;}
	.st4{fill:#FF79C6;}
	.st5{fill:#50FA7B;}
	.st6{fill:#FFB86C;}
	.st7{fill:#E3E3E3;fill-opacity:0.1;}
</style>
<g>
	<circle class="st0" cx="476" cy="476" r="333.2"/>
	<rect x="479.5" y="478.3" class="st1" width="0" height="0"/>
	<circle class="st2" cx="459.4" cy="146.1" r="12.2"/>
	<rect x="474.4" y="463.5" class="st3" width="0" height="0"/>
	<circle class="st2" cx="541.7" cy="113.8" r="13.5"/>
	<rect x="471.9" y="473.2" class="st3" width="0" height="0"/>
	<circle class="st4" cx="786.4" cy="359.6" r="2.5"/>
	<rect x="475.3" y="486.9" class="st4" width="0" height="0"/>
	<circle class="st5" cx="481.6" cy="175.6" r="8.4"/>
	<rect x="488.4" y="481.1" class="st1" width="0" height="0"/>
	<rect x="466.5" y="483" class="st6" width="0" height="0"/>
	<circle class="st2" cx="563.2" cy="113" r="8.7"/>
	<circle class="st1" cx="482.3" cy="162.3" r="4.4"/>
	<rect x="458.8" y="478.2" class="st4" width="0" height="0"/>
	<circle class="st1" cx="749.9" cy="289.5" r="13.3"/>
	<circle class="st1" cx="487.9" cy="164.6" r="3.3"/>
	
		<ellipse transform="matrix(0.3827 -0.9239 0.9239 0.3827 191.391 549.7283)" class="st4" cx="507.1" cy="131.6" rx="10.7" ry="10.7"/>
	<rect x="484.2" y="490.8" class="st2" width="0" height="0"/>
	<circle class="st2" cx="549.7" cy="148.5" r="8.8"/>
	<rect x="482.8" y="468.2" class="st4" width="0" height="0"/>
	<rect x="478.6" y="498.7" class="st3" width="0" height="0"/>
	<circle class="st4" cx="733.6" cy="274.5" r="2.5"/>
	<rect x="498.3" y="480.7" class="st1" width="0" height="0"/>
	<rect x="455.4" y="488.1" class="st5" width="0" height="0"/>
	<rect x="484.9" y="458.2" class="st2" width="0" height="0"/>
	<rect x="474.5" y="508.8" class="st3" width="0" height="0"/>
	<circle class="st5" cx="529" cy="132.9" r="10.1"/>
	<rect x="491.8" y="471.9" class="st1" width="0" height="0"/>
	<circle class="st2" cx="492.3" cy="153.5" r="8"/>
	<rect x="463.4" y="469.6" class="st3" width="0" height="0"/>
	<rect x="494.3" y="490.8" class="st3" width="0" height="0"/>
	<circle class="st1" cx="473.7" cy="141.2" r="2.6"/>
	<rect x="492.5" y="450.6" class="st3" width="0" height="0"/>
	
		<ellipse transform="matrix(0.1602 -0.9871 0.9871 0.1602 294.1992 630.2524)" class="st4" cx="517.5" cy="142.2" rx="6.8" ry="6.8"/>
	<rect x="451.2" y="472.8" class="st3" width="0" height="0"/>
	<circle class="st4" cx="739.9" cy="268.7" r="2.5"/>
	<rect x="460" y="495.2" class="st3" width="0" height="0"/>
	<rect x="476.8" y="452.2" class="st3" width="0" height="0"/>
	<circle class="st5" cx="702.4" cy="227.6" r="9.2"/>
	<rect x="448" y="484.4" class="st1" width="0" height="0"/>
	<rect x="493.7" y="461.7" class="st5" width="0" height="0"/>
	<rect x="470" y="494.6" class="st3" width="0" height="0"/>
	<rect x="467.9" y="457.2" class="st3" width="0" height="0"/>
	<circle class="st4" cx="521.3" cy="120" r="6.8"/>
	<rect x="447.3" y="497" class="st3" width="0" height="0"/>
	<ellipse transform="matrix(0.2298 -0.9732 0.9732 0.2298 280.7501 582.654)" class="st2" cx="508.5" cy="114" rx="6.9" ry="6.9"/>
	<rect x="485.4" y="503.9" class="st4" width="0" height="0"/>
	<circle class="st2" cx="561.9" cy="157.4" r="8.1"/>
	<circle class="st2" cx="528" cy="161.3" r="15.9"/>
	<rect x="466.1" y="502.8" class="st3" width="0" height="0"/>
	<circle class="st2" cx="597.5" cy="188.3" r="6.6"/>
	<rect x="495.9" y="509.1" class="st3" width="0" height="0"/>
	<rect x="440" y="489.8" class="st4" width="0" height="0"/>
	<rect x="501.5" y="454.6" class="st4" width="0" height="0"/>
	<circle class="st5" cx="461.5" cy="126.4" r="6.8"/>
	<rect x="458.9" y="462" class="st3" width="0" height="0"/>
	<rect x="504.4" y="488.2" class="st4" width="0" height="0"/>
	<rect x="454.3" y="503.6" class="st3" width="0" height="0"/>
	<rect x="483.2" y="445.7" class="st3" width="0" height="0"/>
	<circle class="st2" cx="582.5" cy="125.1" r="13.6"/>
	<rect x="442.5" y="478" class="st3" width="0" height="0"/>
	<rect x="501.2" y="468" class="st3" width="0" height="0"/>
	<circle class="st2" cx="655.6" cy="198.1" r="2.5"/>
	<circle class="st5" cx="596.6" cy="785.1" r="2.5"/>
	<rect x="513" y="489.7" class="st6" width="0" height="0"/>
	<circle class="st2" cx="541.1" cy="146.7" r="6.7"/>
	<circle class="st2" cx="559.2" cy="130.7" r="10.7"/>
	<rect x="479.7" y="517.1" class="st3" width="0" height="0"/>
	<rect x="448.7" y="464.3" class="st3" width="0" height="0"/>
	<rect x="506.3" y="475.6" class="st1" width="0" height="0"/>
	<circle class="st2" cx="542.4" cy="133.2" r="7.1"/>
	<rect x="472.2" y="441.9" class="st3" width="0" height="0"/>
	<circle class="st2" cx="514.9" cy="805.5" r="2.5"/>
	<circle class="st2" cx="573.9" cy="162.8" r="7.8"/>
	<circle class="st4" cx="597.4" cy="165.1" r="2.5"/>
	<rect x="471" y="520.4" class="st4" width="0" height="0"/>
	<rect x="456.9" y="452" class="st4" width="0" height="0"/>
	<circle class="st2" cx="798.5" cy="398.7" r="2.5"/>
	<rect x="444.3" y="508.4" class="st3" width="0" height="0"/>
	<rect x="493.8" y="440.7" class="st3" width="0" height="0"/>
	<circle class="st5" cx="472.1" cy="117" r="5.6"/>
	<rect x="438.6" y="470.5" class="st4" width="0" height="0"/>
	<rect x="514.5" y="468.5" class="st4" width="0" height="0"/>
	<path class="st7" d="M464.2,510.3c0.6,0,1,0.4,1,1s-0.4,1-1,1s-1-0.4-1-1S463.6,510.3,464.2,510.3z"/>
	<circle class="st2" cx="601.1" cy="138.4" r="8.9"/>
	<circle class="st2" cx="594.5" cy="160.3" r="3.9"/>
	<circle class="st1" cx="493.3" cy="131.1" r="3.9"/>
	<circle class="st1" cx="473.2" cy="157.1" r="5.2"/>
	<rect x="495.1" y="522.4" class="st1" width="0" height="0"/>
	<rect x="447.9" y="455.3" class="st1" width="0" height="0"/>
	<circle class="st2" cx="541.9" cy="179" r="9.1"/>
	<circle class="st2" cx="722.5" cy="255.5" r="2.5"/>
	<circle class="st1" cx="537.8" cy="802" r="14.3"/>
	<circle class="st2" cx="514.2" cy="184.8" r="9.6"/>
	<rect x="433.1" y="479.8" class="st4" width="0" height="0"/>
	<rect x="508.1" y="461.5" class="st1" width="0" height="0"/>
	<circle class="st2" cx="799.9" cy="447.6" r="2.5"/>
	<circle class="st1" cx="464.2" cy="168.2" r="9.2"/>
	<circle class="st1" cx="473.9" cy="127.7" r="6"/>
	<rect x="438" y="501" class="st3" width="0" height="0"/>
	<rect x="485" y="436.5" class="st2" width="0" height="0"/>
	<circle class="st1" cx="566.5" cy="146.5" r="9.9"/>
	<rect x="437.8" y="462.3" class="st1" width="0" height="0"/>
	<rect x="514.3" y="480" class="st1" width="0" height="0"/>
	<circle class="st2" cx="501.1" cy="170.4" r="12.1"/>
	<rect x="465.2" y="447.9" class="st1" width="0" height="0"/>
	<rect x="494.5" y="499.4" class="st3" width="0" height="0"/>
	<rect x="431.3" y="491.7" class="st3" width="0" height="0"/>
	<rect x="502.9" y="443.9" class="st3" width="0" height="0"/>
	<rect x="476.9" y="528.5" class="st2" width="0" height="0"/>
	<circle class="st2" cx="553.6" cy="165.4" r="9.7"/>
	<circle class="st2" cx="530.9" cy="189.9" r="10.2"/>
	<circle class="st1" cx="482" cy="155.6" r="2.5"/>
	<rect x="488.7" y="427.2" class="st3" width="0" height="0"/>
	<rect x="503" y="517.8" class="st3" width="0" height="0"/>
	<rect x="427.8" y="467.8" class="st1" width="0" height="0"/>
	<rect x="518.3" y="458.7" class="st1" width="0" height="0"/>
	<rect x="460.9" y="520.1" class="st3" width="0" height="0"/>
	<circle class="st2" cx="658" cy="213.2" r="12.1"/>
	<rect x="505.2" y="497.6" class="st6" width="0" height="0"/>
	<rect x="428" y="500.8" class="st3" width="0" height="0"/>
	<circle class="st3" cx="500.2" cy="144.4" r="3"/>
	<circle class="st4" cx="479" cy="147.2" r="6.6"/>
	<rect x="438.5" y="452.8" class="st6" width="0" height="0"/>
	<rect x="523.4" y="482.7" class="st2" width="0" height="0"/>
	<rect x="454" y="513.1" class="st2" width="0" height="0"/>
	<rect x="475.6" y="433.5" class="st1" width="0" height="0"/>
	<rect x="504.9" y="506.7" class="st2" width="0" height="0"/>
	<rect x="424.1" y="487.6" class="st4" width="0" height="0"/>
	<rect x="510.9" y="450.9" class="st3" width="0" height="0"/>
	<rect x="464.8" y="529.2" class="st3" width="0" height="0"/>
	<circle class="st1" cx="476.2" cy="165.6" r="2.9"/>
	<rect x="516.3" y="498.9" class="st3" width="0" height="0"/>
	<rect x="433.8" y="510.4" class="st1" width="0" height="0"/>
	<circle class="st2" cx="557.2" cy="184.6" r="9.6"/>
	<rect x="496" y="533.6" class="st6" width="0" height="0"/>
	<rect x="429.3" y="457.2" class="st4" width="0" height="0"/>
	<rect x="522.8" y="472.1" class="st3" width="0" height="0"/>
	<rect x="452.1" y="522.8" class="st3" width="0" height="0"/>
	<rect x="458.6" y="426.7" class="st2" width="0" height="0"/>
	<rect x="515.5" y="507.5" class="st1" width="0" height="0"/>
	<circle class="st2" cx="614.6" cy="142.7" r="5.9"/>
	<circle class="st1" cx="493.8" cy="140.4" r="5.8"/>
	<circle class="st1" cx="472.6" cy="137.3" r="3.6"/>
	<rect x="440.6" y="444.1" class="st1" width="0" height="0"/>
	<rect x="523.1" y="492.7" class="st4" width="0" height="0"/>
	<rect x="443.2" y="517.6" class="st6" width="0" height="0"/>
	<rect x="457.1" y="439.3" class="st5" width="0" height="0"/>
	<circle class="st5" cx="488.6" cy="119.1" r="10"/>
	<rect x="424.5" y="477.2" class="st1" width="0" height="0"/>
	<circle class="st2" cx="569.8" cy="172.4" r="8.6"/>
	<circle class="st2" cx="590" cy="172.6" r="10.7"/>
	<rect x="449.8" y="444.3" class="st1" width="0" height="0"/>
	<circle class="st2" cx="545.8" cy="196.3" r="8.1"/>
	<circle class="st2" cx="507" cy="150.4" r="7.5"/>
	<rect x="513.7" y="441.1" class="st3" width="0" height="0"/>
	<circle class="st3" cx="512.1" cy="159.5" r="2.5"/>
	<rect x="420.6" y="456" class="st4" width="0" height="0"/>
	<rect x="532" y="476.8" class="st4" width="0" height="0"/>
	<rect x="443.8" y="529.5" class="st4" width="0" height="0"/>
	<rect x="468.6" y="425.5" class="st6" width="0" height="0"/>
	<rect x="511.9" y="516.2" class="st2" width="0" height="0"/>
	<rect x="415.5" y="486.2" class="st3" width="0" height="0"/>
	<rect x="497.1" y="431.1" class="st1" width="0" height="0"/>
	<rect x="488.1" y="535.7" class="st3" width="0" height="0"/>
	<circle class="st2" cx="719.6" cy="238.5" r="10.6"/>
	<circle class="st3" cx="617.9" cy="775.9" r="13.5"/>
	<rect x="428.4" y="517.3" class="st3" width="0" height="0"/>
	<circle class="st1" cx="600.2" cy="151.8" r="3.2"/>
	<circle class="st2" cx="609.6" cy="159.9" r="12.1"/>
	<circle class="st2" cx="581.2" cy="192.1" r="12.5"/>
	<rect x="529.9" y="466.6" class="st6" width="0" height="0"/>
	<rect x="460.3" y="537.4" class="st3" width="0" height="0"/>
	<rect x="450.3" y="430.6" class="st3" width="0" height="0"/>
	<rect x="521.6" y="516" class="st1" width="0" height="0"/>
	<rect x="418.4" y="497" class="st3" width="0" height="0"/>
	<circle class="st2" cx="586.5" cy="150.8" r="11.1"/>
	<circle class="st1" cx="483.2" cy="134.8" r="5.7"/>
	<rect x="427.3" y="447.1" class="st3" width="0" height="0"/>
	<rect x="532.6" y="487.2" class="st5" width="0" height="0"/>
	<circle class="st2" cx="561.8" cy="206" r="11"/>
	<circle class="st2" cx="622.1" cy="177" r="8.3"/>
	<rect x="512.6" y="525.4" class="st1" width="0" height="0"/>
	<rect x="415.3" y="475.8" class="st1" width="0" height="0"/>
	<rect x="520.8" y="448.4" class="st1" width="0" height="0"/>
	<rect x="480" y="537.9" class="st3" width="0" height="0"/>
	<rect x="442.3" y="434.1" class="st1" width="0" height="0"/>
	<rect x="525.9" y="506.7" class="st1" width="0" height="0"/>
	<rect x="422.2" y="507.7" class="st3" width="0" height="0"/>
	<rect x="479.1" y="425" class="st4" width="0" height="0"/>
	<rect x="488.2" y="513.4" class="st3" width="0" height="0"/>
	<circle class="st1" cx="606.6" cy="180.3" r="7.3"/>
	<circle class="st4" cx="769.9" cy="322.6" r="2.5"/>
	<rect x="452.7" y="532.4" class="st3" width="0" height="0"/>
	<rect x="464.6" y="434.9" class="st2" width="0" height="0"/>
	<circle class="st1" cx="668.9" cy="191.5" r="11.5"/>
	<circle class="st2" cx="807.4" cy="437.9" r="9.3"/>
	<circle class="st4" cx="700.2" cy="248.3" r="10.6"/>
	<rect x="486.6" y="525.3" class="st5" width="0" height="0"/>
	<rect x="433.3" y="439.1" class="st1" width="0" height="0"/>
	<rect x="530.2" y="498.1" class="st6" width="0" height="0"/>
	<rect x="436.2" y="523.7" class="st2" width="0" height="0"/>
	<rect x="505.8" y="434.6" class="st5" width="0" height="0"/>
	<rect x="503.9" y="529.7" class="st1" width="0" height="0"/>
	<rect x="418" y="465.9" class="st1" width="0" height="0"/>
	<rect x="527" y="457.4" class="st3" width="0" height="0"/>
	<rect x="470.6" y="537.8" class="st3" width="0" height="0"/>
</g>
</svg>
